<svg id="Layer_3" enable-background="new 0 0 64 64" height="512" viewBox="0 0 64 64" width="512" xmlns="http://www.w3.org/2000/svg"><g><g><path d="m62 54h-6v-49c0-1.657 1.343-3 3-3 1.657 0 3 1.343 3 3z" fill="#243242"/></g><g><path d="m62 21.668v-16.668c0-1.657-1.343-3-3-3s-3 1.343-3 3v20.789c2.26-.986 4.293-2.39 6-4.121z" fill="#4d5d7a"/></g><g><path d="m62 54-2 6h-2l-2-6z" fill="#4d5d7a"/></g><g><path d="m7 15h-3c-1.105 0-2 .895-2 2v37c0 1.105.895 2 2 2h46c1.105 0 2-.895 2-2v-37c0-1.105-.895-2-2-2h-3z" fill="#f8cf6a"/></g><g><path d="m27 52 .713-.428c2.805-1.683 6.015-2.572 9.287-2.572 3.272 0 6.482.889 9.287 2.572l.713.428v-40l-.713-.428c-2.805-1.683-6.015-2.572-9.287-2.572-3.272 0-6.482.889-9.287 2.572l-.713.428-.713-.428c-2.805-1.683-6.015-2.572-9.287-2.572-3.272 0-6.482.889-9.287 2.572l-.713.428v40l.713-.428c2.805-1.683 6.015-2.572 9.287-2.572 3.272 0 6.482.889 9.287 2.572z" fill="#ebf7fe"/></g><g><path d="m27 12v40l15-10v-40z" fill="#a1cdfb"/></g><g><path d="m27 33.975c7.205-4.27 12.038-12.121 12.038-21.103 0-2.803-.477-5.493-1.343-8.002-4.376 2.918-10.695 7.13-10.695 7.13z" fill="#c7e2fc"/></g><g><path d="m50 57h-46c-1.654 0-3-1.346-3-3v-37c0-1.654 1.346-3 3-3h3v2h-3c-.552 0-1 .449-1 1v37c0 .551.448 1 1 1h46c.552 0 1-.449 1-1v-37c0-.551-.448-1-1-1h-3v-2h3c1.654 0 3 1.346 3 3v37c0 1.654-1.346 3-3 3z"/></g><g><path d="m47 53c-.178 0-.356-.047-.515-.143l-.713-.428c-2.648-1.589-5.682-2.429-8.772-2.429s-6.124.84-8.772 2.43l-.711.427c-.053.032-.108.059-.165.08h-.001-.001-.001-.001-.001c-.001 0-.001 0-.001 0-.001 0-.001 0-.002 0-.104.038-.212.058-.321.061 0 0 0 0-.001 0 0 0 0 0-.001 0h-.001-.001s-.001 0-.002 0c-.001 0-.001 0-.002 0-.001 0-.002 0-.002 0-.121-.005-.198-.012-.294-.04h-.001c-.001 0-.001 0-.001 0h-.002-.001-.001s0 0-.001 0c-.072-.021-.143-.052-.21-.09-.001 0 0 .003-.003-.002 0 0 0 0-.001 0-.005-.003-.01-.006-.015-.009l-.711-.426c-2.648-1.591-5.682-2.431-8.772-2.431s-6.124.84-8.772 2.43l-.713.428c-.31.187-.694.19-1.008.013-.314-.178-.507-.511-.507-.871v-40c0-.351.185-.677.485-.857l.713-.428c2.96-1.776 6.349-2.715 9.802-2.715s6.842.939 9.802 2.715l.17.102 14.474-9.649c.307-.204.702-.224 1.026-.05.325.174.528.513.528.882v6.97c1.326.44 2.602 1.025 3.802 1.745l.713.428c.3.18.485.506.485.857v40c0 .36-.193.693-.507.87-.153.087-.323.13-.493.13zm-10-5c3.145 0 6.237.779 9 2.26v-37.694l-.228-.137c-.882-.529-1.81-.977-2.772-1.339v30.91c0 .334-.167.646-.445.832l-7.985 5.324c.803-.104 1.615-.156 2.43-.156zm-20 0c3.145 0 6.237.779 9 2.26v-37.694l-.228-.137c-2.648-1.589-5.682-2.429-8.772-2.429s-6.124.84-8.772 2.43l-.228.136v37.694c2.763-1.481 5.855-2.26 9-2.26zm11-35.465v37.596l13-8.667v-37.595z"/></g><g><path d="m10 19h14v2h-14z"/></g><g><path d="m10 35h14v2h-14z"/></g><g><path d="m10 23h14v2h-14z"/></g><g><path d="m10 27h5v2h-5z"/></g><g><path d="m19 27h5v2h-5z"/></g><g><path d="m10 31h5v2h-5z"/></g><g><path d="m19 31h5v2h-5z"/></g><g><path d="m30.469 14h8.062v2h-8.062z" transform="matrix(.868 -.496 .496 .868 -2.897 19.093)"/></g><g><path d="m30.469 19h8.062v2h-8.062z" transform="matrix(.868 -.496 .496 .868 -5.377 19.752)"/></g><g><path d="m30.469 24h8.062v2h-8.062z" transform="matrix(.868 -.496 .496 .868 -7.858 20.411)"/></g><g><path d="m62 55h-6c-.553 0-1-.448-1-1v-49c0-2.206 1.794-4 4-4s4 1.794 4 4v49c0 .552-.447 1-1 1zm-5-2h4v-48c0-1.103-.897-2-2-2s-2 .897-2 2z"/></g><g><path d="m60 61h-2c-.431 0-.812-.275-.948-.684l-2-6 1.896-.633 1.773 5.317h.559l1.772-5.316 1.896.633-2 6c-.136.408-.517.683-.948.683z"/></g><g><path d="m58 60h2v3h-2z"/></g><g><path d="m53 12h-2v-3c0-2.757 2.243-5 5-5v2c-1.654 0-3 1.346-3 3z"/></g></g></svg>