<svg id="_x33_0" enable-background="new 0 0 64 64" height="512" viewBox="0 0 64 64" width="512" xmlns="http://www.w3.org/2000/svg"><g><path d="m61 15h-2c-1.103 0-2 .897-2 2h-7v-14c0-1.103-.897-2-2-2h-32.414l-8.586 8.586v33.414h-6v18h32c1.103 0 2-.897 2-2h.111c1.081 0 2.164.255 3.13.739 1.651.825 3.498 1.261 5.342 1.261h1.601c.414 1.161 1.514 2 2.816 2h2c1.383 0 2.539-.945 2.884-2.22.346.139.721.22 1.116.22h4c1.654 0 3-1.346 3-3 0-.771-.301-1.468-.78-2 .48-.532.78-1.229.78-2s-.301-1.468-.78-2c.48-.532.78-1.229.78-2s-.301-1.468-.78-2c.48-.532.78-1.229.78-2 0-1.654-1.346-3-3-3h-1.556c.344-.591.556-1.268.556-2 0-1.103-.897-2-2-2h-2v-8h4c0 1.103.897 2 2 2h2c1.103 0 2-.897 2-2v-14c0-1.103-.897-2-2-2zm-46-10.586v4.586h-4.586zm18 54.586h-30v-14h30zm-12-24c-3.309 0-6-2.691-6-6s2.691-6 6-6 6 2.691 6 6-2.691 6-6 6zm0 2c1.061 0 2.073-.212 3-.589v5.175l-3-3-3 3v-5.175c.927.377 1.939.589 3 .589zm1.586 6h-3.172l1.586-1.586zm3.414 0v-7.765c1.826-1.468 3-3.715 3-6.235 0-4.411-3.589-8-8-8s-8 3.589-8 8c0 2.52 1.174 4.768 3 6.235v7.765h-7v-32h8v-8h31v14h-7c0-1.103-.897-2-2-2h-2c-1.103 0-2 .897-2 2v14c0 1.103.897 2 2 2h2c1.103 0 2-.897 2-2h4v8h-1c-2.568 0-5.069.905-7.05 2.556l-2.475 2.105c-.366-.403-.889-.661-1.475-.661zm13-26v14h-2v-14zm12 43c0 .551-.449 1-1 1h-2c-.551 0-1-.449-1-1v-10-4.907c.15-.055.306-.093.472-.093h1.699c-.11.313-.171.649-.171 1 0 .395.081.77.22 1.116-1.275.345-2.22 1.501-2.22 2.884s.945 2.539 2.22 2.884c-.139.346-.22.721-.22 1.116 0 1.302.839 2.402 2 2.816zm8-10c0 .551-.449 1-1 1h-6-2c-.551 0-1-.449-1-1s.449-1 1-1h2 6c.551 0 1 .449 1 1zm0 4c0 .551-.449 1-1 1h-4-2c-.551 0-1-.449-1-1s.449-1 1-1h6c.551 0 1 .449 1 1zm-1 5h-4c-.551 0-1-.449-1-1s.449-1 1-1h4c.551 0 1 .449 1 1s-.449 1-1 1zm1-13c0 .551-.449 1-1 1h-6c-.551 0-1-.449-1-1s.449-1 1-1h6c.551 0 1 .449 1 1zm-6-3h-5.528c-1.29 0-2.449.716-3.025 1.87-.656 1.314-1.978 2.13-3.447 2.13v2c1.525 0 2.935-.589 4-1.592v11.592h-1.417c-1.536 0-3.073-.363-4.447-1.05-1.242-.621-2.635-.95-4.025-.95h-.111v-11.159l3.238-2.755c1.615-1.345 3.661-2.086 5.762-2.086h11c0 1.103-.897 2-2 2zm-2-4h-4v-8h4zm2-10h-8-4v-10h16v10zm8 2h-2v-14h2z"/><path d="m21 25c-2.206 0-4 1.794-4 4s1.794 4 4 4 4-1.794 4-4-1.794-4-4-4zm0 6c-1.103 0-2-.897-2-2s.897-2 2-2 2 .897 2 2-.897 2-2 2z"/><path d="m19 5h6v2h-6z"/><path d="m27 5h17v2h-17z"/><path d="m19 9h25v2h-25z"/><path d="m13 13h8v2h-8z"/><path d="m23 13h8v2h-8z"/><path d="m13 17h8v2h-8z"/><path d="m23 17h8v2h-8z"/></g></svg>