<svg id="_x33_0" enable-background="new 0 0 64 64" height="512" viewBox="0 0 64 64" width="512" xmlns="http://www.w3.org/2000/svg"><g><g><g fill="#e6e9ed"><path d="m17 44h8l-4-4z"/><path d="m49 18v-15c0-.55-.45-1-1-1h-32v8h-8v34h25c.55 0 1 .45 1 1v.38l3.6-3.06c1.8-1.5 4.06-2.32 6.4-2.32h2v-10h-6v1c0 .55-.45 1-1 1h-2c-.55 0-1-.45-1-1v-14c0-.55.45-1 1-1h2c.55 0 1 .45 1 1v1z"/></g><path d="m16 2v8h-8z" fill="#fcd770"/><path d="m25 34.75v9.25l-4-4-4 4v-9.25c1.13.79 2.51 1.25 4 1.25s2.87-.46 4-1.25z" fill="#fcd770"/><path d="m28 29c0 2.38-1.18 4.48-3 5.75-1.13.79-2.51 1.25-4 1.25s-2.87-.46-4-1.25c-1.82-1.27-3-3.37-3-5.75 0-3.87 3.13-7 7-7s7 3.13 7 7z" fill="#ff826e"/><circle cx="21" cy="29" fill="#fc6e51" r="3"/><path d="m34 45v.38 12.62 1c0 .55-.45 1-1 1h-31v-16h6 9 8 8c.55 0 1 .45 1 1z" fill="#b4dd7f"/><g fill="#f0d0b4"><path d="m58 48c1.1 0 2 .9 2 2 0 .55-.22 1.05-.59 1.41-.36.37-.86.59-1.41.59h-6-2c-1.1 0-2-.9-2-2 0-.55.22-1.05.59-1.41.36-.37.86-.59 1.41-.59h2z"/><path d="m58 56c1.1 0 2 .9 2 2 0 .55-.22 1.05-.59 1.41-.36.37-.86.59-1.41.59h-4c-1.1 0-2-.9-2-2 0-.55.22-1.05.59-1.41.36-.37.86-.59 1.41-.59z"/><path d="m58 52c1.1 0 2 .9 2 2 0 .55-.22 1.05-.59 1.41-.36.37-.86.59-1.41.59h-4-2c-1.1 0-2-.9-2-2 0-.55.22-1.05.59-1.41.36-.37.86-.59 1.41-.59z"/><path d="m53 44h5c1.1 0 2 .9 2 2 0 .55-.22 1.05-.59 1.41-.36.37-.86.59-1.41.59h-6c-1.1 0-2-.9-2-2 0-.55.22-1.05.59-1.41.36-.37.86-.59 1.41-.59z"/><path d="m46 44.52v15.48h-2.42c-1.7 0-3.37-.4-4.89-1.16-1.11-.55-2.34-.84-3.58-.84h-1.11v-12.62l3.6-3.06c1.8-1.5 4.06-2.32 6.4-2.32h2 6 3c.55 0 1 .45 1 1 0 1.66-1.34 3-3 3h-1-4.53c-.55 0-1.06.19-1.47.52z"/></g><path d="m46 60v-15.48c.41-.33.92-.52 1.47-.52h4.53c-.55 0-1.05.22-1.41.59-.37.36-.59.86-.59 1.41 0 1.1.9 2 2 2h-2c-.55 0-1.05.22-1.41.59-.37.36-.59.86-.59 1.41 0 1.1.9 2 2 2h2c-.55 0-1.05.22-1.41.59-.37.36-.59.86-.59 1.41 0 1.1.9 2 2 2v2 2c0 1.1-.9 2-2 2h-2c-1.1 0-2-.9-2-2z" fill="#cf9e76"/><path d="m46 30h6v10h-6z" fill="#cf9e76"/><path d="m58 18v12h-6-6-6v-12h9z" fill="#d3a06c"/><path d="m40 30v1c0 .55-.45 1-1 1h-2c-.55 0-1-.45-1-1v-14c0-.55.45-1 1-1h2c.55 0 1 .45 1 1v1z" fill="#b27946"/><path d="m62 17v14c0 .55-.45 1-1 1h-2c-.55 0-1-.45-1-1v-1-12-1c0-.55.45-1 1-1h2c.55 0 1 .45 1 1z" fill="#b27946"/></g><g><path d="m61 15h-2c-1.103 0-2 .897-2 2h-7v-14c0-1.103-.897-2-2-2h-32.414l-8.586 8.586v33.414h-6v18h32c1.103 0 2-.897 2-2h.111c1.081 0 2.164.255 3.13.739 1.651.825 3.498 1.261 5.342 1.261h1.601c.414 1.161 1.514 2 2.816 2h2c1.383 0 2.539-.945 2.884-2.22.346.139.721.22 1.116.22h4c1.654 0 3-1.346 3-3 0-.771-.301-1.468-.78-2 .48-.532.78-1.229.78-2s-.301-1.468-.78-2c.48-.532.78-1.229.78-2s-.301-1.468-.78-2c.48-.532.78-1.229.78-2 0-1.654-1.346-3-3-3h-1.556c.344-.591.556-1.268.556-2 0-1.103-.897-2-2-2h-2v-8h4c0 1.103.897 2 2 2h2c1.103 0 2-.897 2-2v-14c0-1.103-.897-2-2-2zm-46-10.586v4.586h-4.586zm18 54.586h-30v-14h30zm-12-24c-3.309 0-6-2.691-6-6s2.691-6 6-6 6 2.691 6 6-2.691 6-6 6zm0 2c1.061 0 2.073-.212 3-.589v5.175l-3-3-3 3v-5.175c.927.377 1.939.589 3 .589zm1.586 6h-3.172l1.586-1.586zm3.414 0v-7.765c1.826-1.468 3-3.715 3-6.235 0-4.411-3.589-8-8-8s-8 3.589-8 8c0 2.52 1.174 4.768 3 6.235v7.765h-7v-32h8v-8h31v14h-7c0-1.103-.897-2-2-2h-2c-1.103 0-2 .897-2 2v14c0 1.103.897 2 2 2h2c1.103 0 2-.897 2-2h4v8h-1c-2.568 0-5.069.905-7.05 2.556l-2.475 2.105c-.366-.403-.889-.661-1.475-.661zm13-26v14h-2v-14zm12 43c0 .551-.449 1-1 1h-2c-.551 0-1-.449-1-1v-10-4.907c.15-.055.306-.093.472-.093h1.699c-.11.313-.171.649-.171 1 0 .395.081.77.22 1.116-1.275.345-2.22 1.501-2.22 2.884s.945 2.539 2.22 2.884c-.139.346-.22.721-.22 1.116 0 1.302.839 2.402 2 2.816zm8-10c0 .551-.449 1-1 1h-6-2c-.551 0-1-.449-1-1s.449-1 1-1h2 6c.551 0 1 .449 1 1zm0 4c0 .551-.449 1-1 1h-4-2c-.551 0-1-.449-1-1s.449-1 1-1h6c.551 0 1 .449 1 1zm-1 5h-4c-.551 0-1-.449-1-1s.449-1 1-1h4c.551 0 1 .449 1 1s-.449 1-1 1zm1-13c0 .551-.449 1-1 1h-6c-.551 0-1-.449-1-1s.449-1 1-1h6c.551 0 1 .449 1 1zm-6-3h-5.528c-1.29 0-2.449.716-3.025 1.87-.656 1.314-1.978 2.13-3.447 2.13v2c1.525 0 2.935-.589 4-1.592v11.592h-1.417c-1.536 0-3.073-.363-4.447-1.05-1.242-.621-2.635-.95-4.025-.95h-.111v-11.159l3.238-2.755c1.615-1.345 3.661-2.086 5.762-2.086h11c0 1.103-.897 2-2 2zm-2-4h-4v-8h4zm2-10h-8-4v-10h16v10zm8 2h-2v-14h2z"/><path d="m21 25c-2.206 0-4 1.794-4 4s1.794 4 4 4 4-1.794 4-4-1.794-4-4-4zm0 6c-1.103 0-2-.897-2-2s.897-2 2-2 2 .897 2 2-.897 2-2 2z"/><path d="m19 5h6v2h-6z"/><path d="m27 5h17v2h-17z"/><path d="m19 9h25v2h-25z"/><path d="m13 13h8v2h-8z"/><path d="m23 13h8v2h-8z"/><path d="m13 17h8v2h-8z"/><path d="m23 17h8v2h-8z"/></g></g></svg>